# xmcd CD database file
#
# Track frame offsets:
#	150
#	19107
#	34680
#	53787
#	75552
#	86580
#	98777
#	133387
#	152422
#	174472
#	200950
#	212922
#	224442
#	242780
#	255130
#	282237
#
# Disc length: 3977 seconds
#
# Revision: 4
# Processed by: cddbd v1.5.2PL0 Copyright (c) Steve Scherf et al.
# Submitted via: CDex 1.51
#
DISCID=df0f8710
DTITLE=Variés - 'Swonderfull - The Gershwin Songbook
DYEAR=1992
DGENRE=Blues
TTITLE0=Billie Holiday - They Can't Take That Away from Me
TTITLE1=Helen Merrill - Summertime
TTITLE2=Ella Fitzgerald and Louis Armstrong - Let's Call the Whole Thing Off
TTITLE3=Sarah Vaughan - Embraceable You
TTITLE4=Dinah Washington - But Not for Me
TTITLE5=Bing Crosby - They All Laughed
TTITLE6=Betty Carter - The Man I Love
TTITLE7=The Gordons with Dizzy Gillespie and Stuff Smith - Oh, Lady Be Good
TTITLE8=Louis Armstrong - There's a Boat Dat's Leavin' Soon for New York
TTITLE9=Ella Fitzgerald - How Long Has This Been Going On?
TTITLE10=Joe Williams - 'S Wonderfull
TTITLE11=Nina Simone - I Loves You, Porgy
TTITLE12=Bill Henderson - I've Got a Crush on You
TTITLE13=Fred Astaire - Facinating Rhythm
TTITLE14=Blossom Dearie - Someone to Watch over Me
TTITLE15=Shirley Horn - Our Love Is Here to Stay
EXTD=YEAR: 1992
EXTT0=
EXTT1=
EXTT2=
EXTT3=
EXTT4=
EXTT5=
EXTT6=
EXTT7=
EXTT8=
EXTT9=
EXTT10=
EXTT11=
EXTT12=
EXTT13=
EXTT14=
EXTT15=
PLAYORDER=
